<?xml version="1.0" standalone="no"?>
<!DOCTYPE svg PUBLIC "-//W3C//DTD SVG 20010904//EN"
 "http://www.w3.org/TR/2001/REC-SVG-20010904/DTD/svg10.dtd">
<svg version="1.0" xmlns="http://www.w3.org/2000/svg"
 width="273.97pt" height="229.81pt" viewBox="0 0 446.000000 242.000000"
 preserveAspectRatio="xMidYMid meet">

<g transform="translate(0.000000,242.000000) scale(0.100000,-0.100000)"
fill="#000000" stroke="none">
<path d="M2565 2169 c-38 -4 -104 -12 -145 -18 -109 -15 -319 -13 -567 5 -163
12 -271 14 -428 8 -115 -4 -356 -7 -535 -8 -345 -1 -364 -3 -442 -52 -45 -29
-80 -73 -114 -147 -37 -83 -44 -230 -35 -827 l6 -495 29 -63 c34 -73 86 -124
165 -160 l56 -26 1090 -5 c600 -3 1185 -5 1300 -4 116 1 374 4 575 5 386 3
404 5 480 53 120 77 155 206 140 525 -5 96 -5 229 0 295 5 66 6 251 2 411 l-7
291 -30 49 c-21 33 -48 60 -85 82 -113 67 -110 67 -575 67 -232 1 -485 6 -565
13 -160 13 -211 13 -315 1z m-735 -71 c253 -18 523 -16 698 7 149 19 159 19
440 2 242 -15 323 -16 519 -7 254 12 339 6 438 -31 31 -11 72 -35 91 -52 68
-59 65 -27 68 -680 2 -326 -1 -619 -6 -652 -13 -86 -51 -159 -101 -194 -72
-49 -120 -54 -411 -47 -170 5 -294 4 -355 -4 -104 -12 -85 -12 -896 -4 -314 2
-838 5 -1165 7 l-595 2 -54 30 c-30 17 -67 48 -83 69 -55 76 -57 97 -62 641
-5 560 0 675 34 753 30 70 103 136 168 152 33 7 148 10 353 8 177 -1 346 2
404 9 108 12 270 9 515 -9z"/>
<path d="M764 1596 c-18 -13 -19 -30 -22 -271 -3 -281 1 -305 53 -305 51 0 55
22 55 297 0 240 -1 254 -20 273 -24 24 -39 25 -66 6z"/>
<path d="M2694 1575 c-15 -23 -15 -27 0 -50 20 -30 56 -33 79 -7 21 23 22 46
1 66 -24 24 -61 20 -80 -9z"/>
<path d="M2436 1575 c-11 -12 -16 -34 -16 -76 0 -50 -3 -59 -18 -59 -48 0 -57
-56 -12 -71 l30 -11 0 -124 c0 -181 18 -214 119 -214 70 0 103 17 99 49 -3 23
-8 27 -53 31 l-50 5 -3 126 -3 127 38 9 c61 14 54 73 -8 73 -28 0 -29 2 -29
48 0 26 -6 58 -13 72 -15 30 -58 38 -81 15z"/>
<path d="M1090 1441 c-95 -31 -140 -86 -147 -184 -6 -74 7 -124 45 -169 76
-91 248 -90 325 1 79 94 52 268 -50 328 -45 26 -130 38 -173 24z m103 -82 c38
-17 57 -60 57 -127 0 -102 -60 -159 -136 -127 -57 24 -85 99 -64 176 21 76 78
108 143 78z"/>
<path d="M1535 1435 c-75 -27 -115 -95 -115 -196 0 -124 71 -209 175 -209 50
0 77 10 113 43 l22 20 0 -37 c0 -53 -24 -104 -55 -116 -51 -19 -93 -12 -132
23 -50 45 -68 50 -94 28 -20 -16 -21 -21 -10 -48 37 -90 269 -113 344 -35 43
45 47 71 47 297 0 181 -2 216 -16 229 -8 9 -20 16 -25 16 -23 0 -49 -22 -49
-40 0 -25 -3 -25 -48 5 -48 31 -106 39 -157 20z m144 -81 c68 -48 66 -197 -4
-234 -106 -57 -191 78 -128 203 23 46 88 61 132 31z"/>
<path d="M2050 1441 c-95 -31 -140 -86 -147 -184 -6 -74 7 -124 45 -169 76
-91 248 -90 325 1 79 94 52 268 -50 328 -45 26 -130 38 -173 24z m103 -82 c38
-17 57 -60 57 -127 0 -102 -60 -159 -136 -127 -57 24 -85 99 -64 176 21 76 78
108 143 78z"/>
<path d="M2704 1436 c-17 -13 -19 -29 -22 -188 -3 -191 4 -221 50 -226 50 -6
58 22 58 215 0 160 -2 175 -20 193 -24 24 -39 25 -66 6z"/>
<path d="M2917 1432 c-15 -16 -17 -50 -17 -276 0 -158 4 -265 10 -277 13 -23
53 -25 74 -3 12 12 16 37 16 110 l0 94 42 -30 c67 -49 158 -40 215 22 78 84
71 271 -14 338 -63 49 -149 47 -213 -6 -27 -24 -30 -24 -30 -6 0 22 -30 52
-52 52 -8 0 -22 -8 -31 -18z m242 -78 c29 -21 51 -72 51 -119 0 -77 -45 -135
-105 -135 -62 1 -95 50 -95 140 0 57 3 65 34 96 38 38 77 44 115 18z"/>
<path d="M3516 1436 c-88 -33 -126 -84 -133 -180 -6 -73 7 -123 45 -168 76
-91 248 -90 325 1 79 94 52 268 -50 328 -53 31 -133 39 -187 19z m117 -77 c37
-17 57 -60 57 -124 0 -70 -21 -112 -66 -131 -29 -12 -39 -12 -68 0 -51 21 -70
57 -70 130 0 107 65 163 147 125z"/>
</g>
</svg>
